<svg width="707" height="200" viewBox="0 0 707 200" fill="none" xmlns="http://www.w3.org/2000/svg">
<g clip-path="url(#clip0)">
<rect width="707" height="200" fill="white"/>
<path d="M77.6341 60.911H37.7651V87.9056H84.5558V104.587H17V3.80694H84.4174V20.6267H37.7651V44.645H77.6341V60.911Z" fill="#0B425A"/>
<path d="M135.984 83.891C135.984 81.4453 134.761 79.5303 132.316 78.146C129.916 76.7155 126.04 75.4465 120.687 74.3391C102.875 70.6013 93.9693 63.0336 93.9693 51.6359C93.9693 44.9911 96.7149 39.4537 102.206 35.0238C107.743 30.5478 114.965 28.3098 123.871 28.3098C133.377 28.3098 140.968 30.5478 146.643 35.0238C152.365 39.4998 155.226 45.3141 155.226 52.4665H135.223C135.223 49.6055 134.3 47.2521 132.454 45.4064C130.608 43.5144 127.724 42.5685 123.802 42.5685C120.433 42.5685 117.826 43.3298 115.98 44.8526C114.135 46.3754 113.212 48.3135 113.212 50.6668C113.212 52.8818 114.25 54.6814 116.326 56.0658C118.449 57.404 122.002 58.5807 126.986 59.5958C131.969 60.5649 136.169 61.6724 139.583 62.9183C150.15 66.7944 155.434 73.5085 155.434 83.0604C155.434 89.8898 152.504 95.4272 146.643 99.6725C140.783 103.872 133.215 105.971 123.94 105.971C117.665 105.971 112.081 104.864 107.19 102.649C102.345 100.388 98.5376 97.3191 95.7689 93.443C93.0003 89.5207 91.6159 85.2984 91.6159 80.7763H110.581C110.766 84.3294 112.081 87.0519 114.527 88.9439C116.972 90.8358 120.249 91.7818 124.356 91.7818C128.186 91.7818 131.07 91.0665 133.008 89.636C134.992 88.1594 135.984 86.2444 135.984 83.891Z" fill="#0B425A"/>
<path d="M192.327 11.2824V29.6941H205.132V44.3681H192.327V81.7453C192.327 84.514 192.857 86.4982 193.919 87.6979C194.98 88.8977 197.01 89.4976 200.01 89.4976C202.225 89.4976 204.186 89.3361 205.893 89.0131V104.172C201.971 105.371 197.933 105.971 193.78 105.971C179.752 105.971 172.6 98.888 172.323 84.7216V44.3681H161.387V29.6941H172.323V11.2824H192.327Z" fill="#0B425A"/>
<path d="M237.387 104.587H217.314V29.6941H237.387V104.587ZM216.137 10.3133C216.137 7.31393 217.129 4.84519 219.114 2.90711C221.144 0.969038 223.89 0 227.35 0C230.765 0 233.488 0.969038 235.518 2.90711C237.548 4.84519 238.564 7.31393 238.564 10.3133C238.564 13.3589 237.525 15.8507 235.449 17.7888C233.418 19.7268 230.719 20.6959 227.35 20.6959C223.982 20.6959 221.259 19.7268 219.183 17.7888C217.152 15.8507 216.137 13.3589 216.137 10.3133Z" fill="#0B425A"/>
<path d="M272.688 29.6941L273.311 38.0694C278.617 31.563 285.793 28.3098 294.837 28.3098C304.481 28.3098 311.103 32.1167 314.702 39.7306C319.963 32.1167 327.461 28.3098 337.198 28.3098C345.319 28.3098 351.364 30.6862 355.333 35.4391C359.301 40.1459 361.285 47.2521 361.285 56.7579V104.587H341.212V56.8272C341.212 52.5819 340.382 49.4902 338.721 47.5521C337.059 45.5679 334.129 44.5758 329.93 44.5758C323.931 44.5758 319.778 47.4367 317.471 53.1587L317.54 104.587H297.536V56.8964C297.536 52.5588 296.683 49.4209 294.975 47.4829C293.268 45.5448 290.361 44.5758 286.254 44.5758C280.578 44.5758 276.471 46.9291 273.934 51.6359V104.587H253.93V29.6941H272.688Z" fill="#0B425A"/>
<path d="M420.12 104.587C419.197 102.787 418.528 100.549 418.113 97.8728C413.267 103.272 406.969 105.971 399.216 105.971C391.879 105.971 385.788 103.849 380.943 99.6033C376.144 95.358 373.744 90.0052 373.744 83.5449C373.744 75.608 376.675 69.5169 382.535 65.2716C388.441 61.0263 396.955 58.8806 408.076 58.8345H417.282V54.543C417.282 51.0822 416.382 48.3135 414.582 46.237C412.829 44.1605 410.037 43.1222 406.207 43.1222C402.839 43.1222 400.185 43.9297 398.247 45.5448C396.355 47.1599 395.409 49.3748 395.409 52.1896H375.406C375.406 47.852 376.744 43.8374 379.42 40.1459C382.097 36.4543 385.88 33.5702 390.772 31.4937C395.663 29.3711 401.154 28.3098 407.245 28.3098C416.474 28.3098 423.788 30.6401 429.187 35.3007C434.632 39.9151 437.355 46.4215 437.355 54.8199V87.2826C437.401 94.3889 438.393 99.7648 440.331 103.41V104.587H420.12ZM403.577 90.6743C406.53 90.6743 409.253 90.0282 411.745 88.7362C414.236 87.398 416.082 85.6214 417.282 83.4065V70.5321H409.806C399.793 70.5321 394.463 73.993 393.817 80.9147L393.748 82.0914C393.748 84.5832 394.625 86.6366 396.378 88.2517C398.132 89.8667 400.531 90.6743 403.577 90.6743Z" fill="#0B425A"/>
<path d="M476.67 11.2824V29.6941H489.475V44.3681H476.67V81.7453C476.67 84.514 477.201 86.4982 478.262 87.6979C479.323 88.8977 481.354 89.4976 484.353 89.4976C486.568 89.4976 488.529 89.3361 490.237 89.0131V104.172C486.314 105.371 482.277 105.971 478.124 105.971C464.096 105.971 456.943 98.888 456.666 84.7216V44.3681H445.73V29.6941H456.666V11.2824H476.67Z" fill="#0B425A"/>
<path d="M521.73 104.587H501.657V29.6941H521.73V104.587ZM500.481 10.3133C500.481 7.31393 501.473 4.84519 503.457 2.90711C505.487 0.969038 508.233 0 511.694 0C515.109 0 517.831 0.969038 519.862 2.90711C521.892 4.84519 522.907 7.31393 522.907 10.3133C522.907 13.3589 521.869 15.8507 519.792 17.7888C517.762 19.7268 515.062 20.6959 511.694 20.6959C508.325 20.6959 505.603 19.7268 503.526 17.7888C501.496 15.8507 500.481 13.3589 500.481 10.3133Z" fill="#0B425A"/>
<path d="M535.158 66.4483C535.158 59.019 536.589 52.3973 539.45 46.583C542.311 40.7688 546.418 36.2697 551.771 33.0857C557.169 29.9017 563.422 28.3098 570.528 28.3098C580.634 28.3098 588.871 31.4014 595.239 37.5848C601.653 43.7682 605.229 52.1666 605.967 62.7798L606.106 67.9019C606.106 79.3919 602.899 88.6208 596.485 95.5887C590.071 102.51 581.465 105.971 570.667 105.971C559.869 105.971 551.24 102.51 544.78 95.5887C538.365 88.667 535.158 79.2535 535.158 67.3481V66.4483ZM555.162 67.9019C555.162 75.0082 556.5 80.4532 559.177 84.2371C561.853 87.9748 565.683 89.8437 570.667 89.8437C575.512 89.8437 579.296 87.9979 582.018 84.3063C584.741 80.5686 586.102 74.6159 586.102 66.4483C586.102 59.4805 584.741 54.0816 582.018 50.2515C579.296 46.4215 575.466 44.5065 570.528 44.5065C565.637 44.5065 561.853 46.4215 559.177 50.2515C556.5 54.0354 555.162 59.9189 555.162 67.9019Z" fill="#0B425A"/>
<path d="M636.838 29.6941L637.461 38.3462C642.814 31.6552 649.989 28.3098 658.988 28.3098C666.925 28.3098 672.831 30.6401 676.707 35.3007C680.583 39.9613 682.568 46.9291 682.66 56.2042V104.587H662.656V56.6887C662.656 52.4434 661.733 49.3748 659.888 47.4829C658.042 45.5448 654.973 44.5758 650.682 44.5758C645.052 44.5758 640.83 46.9753 638.015 51.7743V104.587H618.011V29.6941H636.838Z" fill="#0B425A"/>
<path d="M446.693 155.541C446.693 167.229 445.185 175.682 442.17 180.796C439.721 184.866 436.141 186.953 431.336 186.953C426.531 186.953 423.139 184.866 420.784 180.796C417.769 175.682 416.262 167.125 416.262 155.541C416.262 143.957 417.769 135.4 420.784 130.286C423.139 126.007 426.814 124.129 431.43 124.129C436.046 124.129 439.721 126.112 442.265 130.286C445.374 135.4 446.693 143.748 446.693 155.541ZM435.952 155.541C435.952 141.348 434.445 134.252 431.618 134.252C428.792 134.252 427.285 141.348 427.285 155.541C427.285 169.734 428.792 176.83 431.618 176.83C434.445 176.83 435.952 169.734 435.952 155.541Z" fill="#1C8DCD"/>
<path d="M477.214 163.37C477.214 171.093 475.141 177.041 471.09 181.216C468.264 184.242 465.061 185.807 461.669 186.225V200H451.494V144.899H461.104V147.299L463.459 144.586C463.742 144.481 464.024 144.481 464.401 144.481C468.076 144.168 471.09 145.734 473.446 148.76C475.801 152.308 477.214 157.213 477.214 163.37ZM467.133 162.535C467.133 159.927 466.757 157.944 466.003 156.378C465.343 154.709 464.495 154.082 463.553 154.082C462.423 154.082 461.763 154.709 461.386 156.065V176.311C462.8 175.998 464.119 174.745 465.061 172.867C466.568 170.362 467.133 166.919 467.133 162.535Z" fill="#1C8DCD"/>
<path d="M499.171 186.118C498.229 186.222 497.287 186.222 496.345 186.222C493.236 186.222 490.504 185.179 488.054 182.883C484.474 179.543 482.684 174.43 482.684 167.333V154.81H479.857V144.792H482.684V133.73H492.482V144.792H498.323V154.81H492.576V169.003C492.576 171.612 492.953 173.595 493.99 175.056C494.837 176.413 496.062 177.039 497.287 177.039C497.664 177.039 498.418 177.039 499.077 177.039V186.118H499.171V186.118Z" fill="#1C8DCD"/>
<path d="M513.116 186.431H503.035V145.105H513.116V186.431ZM512.833 139.157H503.224V124.442H512.833V139.157Z" fill="#1C8DCD"/>
<path d="M547.407 144.062C547.407 151.889 544.957 158.255 540.058 162.951C537.326 165.665 534.217 167.334 530.731 168.378V186.432H519.896V124.547H528.187C533.934 124.547 538.551 126.321 542.131 129.87C545.805 133.105 547.407 138.01 547.407 144.062ZM536.478 143.854C536.478 137.696 534.594 134.67 530.731 134.67V156.794C531.861 156.794 533.086 155.855 534.311 153.872C535.818 151.472 536.478 148.132 536.478 143.854Z" fill="#1C8DCD"/>
<path d="M568.223 154.918H567.564C565.774 154.918 564.266 155.648 562.947 157.214C561.534 158.883 560.875 160.971 560.875 163.579V186.434H550.794V145.108H560.404V149.178C561.817 146.465 564.078 145.108 567.375 145.108H568.317V154.918H568.223Z" fill="#1C8DCD"/>
<path d="M596.397 165.664C596.397 173.7 594.796 179.44 591.498 183.092C589.331 185.492 586.599 186.745 583.302 186.745C580.004 186.745 577.46 185.492 575.105 183.092C571.808 179.648 570.206 173.7 570.206 165.664C570.206 157.629 571.808 151.889 575.105 148.236C577.272 145.836 580.004 144.584 583.302 144.584C586.599 144.584 589.143 145.836 591.498 148.236C594.701 151.784 596.397 157.629 596.397 165.664ZM586.411 165.664C586.411 158.255 585.28 154.498 583.396 154.498C581.323 154.498 580.381 158.15 580.381 165.664C580.381 173.282 581.512 176.831 583.396 176.831C585.28 176.726 586.411 173.074 586.411 165.664Z" fill="#1C8DCD"/>
<path d="M624.373 186.431H601.667V167.334H598.841V157.315H601.667V124.442H624.373V134.461H612.596V157.315H622.206V167.334H612.596V176.517H624.373V186.431Z" fill="#EFAA1F"/>
<path d="M656.784 143.749C656.784 152.828 654.146 159.299 649.152 163.16C651.508 166.186 653.392 169.526 654.617 172.97C656.03 176.622 656.689 181.11 656.689 186.432H645.855C645.855 182.779 645.29 179.753 644.348 177.04C643.217 174.013 641.71 171.613 640.202 169.735V186.432H629.462V124.547H638.035C643.5 124.547 648.022 126.113 651.414 129.243C654.805 132.479 656.784 137.488 656.784 143.749ZM645.855 143.749C645.855 137.696 643.971 134.566 640.108 134.566V156.69C641.239 156.69 642.275 155.437 643.688 153.35C645.101 150.637 645.855 147.506 645.855 143.749Z" fill="#EFAA1F"/>
<path d="M689.659 144.062C689.659 151.889 687.21 158.255 682.311 162.951C679.579 165.665 676.47 167.334 672.984 168.378V186.432H662.149V124.547H670.44C676.187 124.547 680.803 126.321 684.384 129.87C688.058 133.105 689.659 138.01 689.659 144.062ZM678.919 143.854C678.919 137.696 677.035 134.67 673.172 134.67V156.794C674.303 156.794 675.528 155.855 676.752 153.872C678.071 151.472 678.919 148.132 678.919 143.854Z" fill="#EFAA1F"/>
</g>
<defs>
<clipPath id="clip0">
<rect width="707" height="200" fill="white"/>
</clipPath>
</defs>
</svg>
